<svg aria-hidden="true" style="position: absolute; width: 0; height: 0; overflow: hidden;" version="1.1" xmlns="http://www.w3.org/2000/svg" xmlns:xlink="http://www.w3.org/1999/xlink">
<defs>
<symbol id="icon-arrow-thick-down" viewBox="0 0 20 20">
<path d="M7 10v-8h6v8h5l-8 8-8-8h5z"></path>
</symbol>
<symbol id="icon-arrow-thick-left" viewBox="0 0 20 20">
<path d="M10 13h8v-6h-8v-5l-8 8 8 8v-5z"></path>
</symbol>
<symbol id="icon-arrow-thick-right" viewBox="0 0 20 20">
<path d="M10 7h-8v6h8v5l8-8-8-8v5z"></path>
</symbol>
<symbol id="icon-arrow-thick-up" viewBox="0 0 20 20">
<path d="M7 10v8h6v-8h5l-8-8-8 8h5z"></path>
</symbol>
<symbol id="icon-cheveron-down" viewBox="0 0 20 20">
<path d="M9.293 12.95l0.707 0.707 5.657-5.657-1.414-1.414-4.243 4.242-4.243-4.242-1.414 1.414z"></path>
</symbol>
<symbol id="icon-cheveron-left" viewBox="0 0 20 20">
<path d="M7.050 9.293l-0.707 0.707 5.657 5.657 1.414-1.414-4.242-4.243 4.242-4.243-1.414-1.414z"></path>
</symbol>
<symbol id="icon-cheveron-right" viewBox="0 0 20 20">
<path d="M12.95 10.707l0.707-0.707-5.657-5.657-1.414 1.414 4.242 4.243-4.242 4.243 1.414 1.414 4.95-4.95z"></path>
</symbol>
<symbol id="icon-cheveron-up" viewBox="0 0 20 20">
<path d="M10.707 7.050l-0.707-0.707-5.657 5.657 1.414 1.414 4.243-4.242 4.243 4.242 1.414-1.414z"></path>
</symbol>
<symbol id="icon-flag" viewBox="0 0 20 20">
<path d="M7.667 12h-5.667v8h-2v-20h12l0.333 2h7.667l-3 6 3 6h-12l-0.333-2z"></path>
</symbol>
<symbol id="icon-mood-happy-outline" viewBox="0 0 20 20">
<path d="M10 20c-5.523 0-10-4.477-10-10s4.477-10 10-10v0c5.523 0 10 4.477 10 10s-4.477 10-10 10v0zM10 18c4.418 0 8-3.582 8-8s-3.582-8-8-8v0c-4.418 0-8 3.582-8 8s3.582 8 8 8v0zM6.5 9c-0.828 0-1.5-0.672-1.5-1.5s0.672-1.5 1.5-1.5v0c0.828 0 1.5 0.672 1.5 1.5s-0.672 1.5-1.5 1.5v0zM13.5 9c-0.828 0-1.5-0.672-1.5-1.5s0.672-1.5 1.5-1.5v0c0.828 0 1.5 0.672 1.5 1.5s-0.672 1.5-1.5 1.5v0zM15.66 12c-0.846 2.355-3.060 4.009-5.66 4.009s-4.814-1.654-5.647-3.967l-0.013-0.042h11.32z"></path>
</symbol>
<symbol id="icon-mood-neutral-outline" viewBox="0 0 20 20">
<path d="M10 20c-5.523 0-10-4.477-10-10s4.477-10 10-10v0c5.523 0 10 4.477 10 10s-4.477 10-10 10v0zM10 18c4.418 0 8-3.582 8-8s-3.582-8-8-8v0c-4.418 0-8 3.582-8 8s3.582 8 8 8v0zM6.5 9c-0.828 0-1.5-0.672-1.5-1.5s0.672-1.5 1.5-1.5v0c0.828 0 1.5 0.672 1.5 1.5s-0.672 1.5-1.5 1.5v0zM13.5 9c-0.828 0-1.5-0.672-1.5-1.5s0.672-1.5 1.5-1.5v0c0.828 0 1.5 0.672 1.5 1.5s-0.672 1.5-1.5 1.5v0zM7 13h6c0.552 0 1 0.448 1 1s-0.448 1-1 1v0h-6c-0.552 0-1-0.448-1-1s0.448-1 1-1v0z"></path>
</symbol>
<symbol id="icon-mood-sad-outline" viewBox="0 0 20 20">
<path d="M10 20c-5.523 0-10-4.477-10-10s4.477-10 10-10v0c5.523 0 10 4.477 10 10s-4.477 10-10 10v0zM10 18c4.418 0 8-3.582 8-8s-3.582-8-8-8v0c-4.418 0-8 3.582-8 8s3.582 8 8 8v0zM6.5 9c-0.828 0-1.5-0.672-1.5-1.5s0.672-1.5 1.5-1.5v0c0.828 0 1.5 0.672 1.5 1.5s-0.672 1.5-1.5 1.5v0zM13.5 9c-0.828 0-1.5-0.672-1.5-1.5s0.672-1.5 1.5-1.5v0c0.828 0 1.5 0.672 1.5 1.5s-0.672 1.5-1.5 1.5v0zM15.66 15h-11.32c0.846-2.355 3.060-4.009 5.66-4.009s4.814 1.654 5.647 3.967l0.013 0.042z"></path>
</symbol>
<symbol id="icon-tag" viewBox="0 0 20 20">
<path d="M0 10v-8l2-2h8l10 10-10 10-10-10zM4.5 6c0.828 0 1.5-0.672 1.5-1.5s-0.672-1.5-1.5-1.5v0c-0.828 0-1.5 0.672-1.5 1.5s0.672 1.5 1.5 1.5v0z"></path>
</symbol>
<symbol id="icon-arrow-up-left" viewBox="0 0 32 32">
<path d="M0 23l8-8 17 17 7-7-17-17 8-8h-23v23z"></path>
</symbol>
<symbol id="icon-arrow-up-right" viewBox="0 0 32 32">
<path d="M9 0l8 8-17 17 7 7 17-17 8 8v-23h-23z"></path>
</symbol>
<symbol id="icon-arrow-down-right" viewBox="0 0 32 32">
<path d="M32 9l-8 8-17-17-7 7 17 17-8 8h23v-23z"></path>
</symbol>
<symbol id="icon-arrow-down-left" viewBox="0 0 32 32">
<path d="M23 32l-8-8 17-17-7-7-17 17-8-8v23h23z"></path>
</symbol>
</defs>
</svg>
